<svg xmlns="http://www.w3.org/2000/svg" viewBox="0 0 693.44 693.44"><rect width="693.44" height="693.44" fill="#ffffff" id="bg" class="bg"/><g><g transform="translate(33.02,&#10;                                0.00) rotate(180, 16.510476190476194, 16.510476190476194)"><svg xmlns="http://www.w3.org/2000/svg" id="Layer_1" data-name="Layer 1" viewBox="0 0 100 100" width="33.02095238095239" height="33.02095238095239"><path d="M50,100a50,50,0,1,1,50-50v50Z" fill="#3D348B"/></svg></g><g transform="translate(66.04,&#10;                                66.04) rotate(270, 16.510476190476194, 16.510476190476194)"><svg xmlns="http://www.w3.org/2000/svg" id="Layer_1" data-name="Layer 1" viewBox="0 0 100 100" width="33.02095238095239" height="33.02095238095239"><path d="M50,100h0A50,50,0,0,1,0,50V0H100V50A50,50,0,0,1,50,100Z" fill="#F18701"/></svg></g><g transform="translate(165.10,&#10;                                0.00) rotate(0, 16.510476190476194, 16.510476190476194)"><svg xmlns="http://www.w3.org/2000/svg" id="Layer_1" data-name="Layer 1" viewBox="0 0 100 100" width="33.02095238095239" height="33.02095238095239"><circle cx="50" cy="50" r="50" fill="#7678ED"/></svg></g><g transform="translate(198.13,&#10;                                0.00) rotate(90, 16.510476190476194, 16.510476190476194)"><svg xmlns="http://www.w3.org/2000/svg" id="Layer_1" data-name="Layer 1" viewBox="0 0 100 100" width="33.02095238095239" height="33.02095238095239"><path d="M50,100h0A50,50,0,0,1,0,50V0H100V50A50,50,0,0,1,50,100Z" fill="#F18701"/></svg></g><g transform="translate(264.17,&#10;                                0.00) rotate(270, 16.510476190476194, 16.510476190476194)"><svg xmlns="http://www.w3.org/2000/svg" id="Layer_1" data-name="Layer 1" viewBox="0 0 100 100" width="33.02095238095239" height="33.02095238095239"><circle cx="50" cy="50" r="50" fill="#7678ED"/></svg></g><g transform="translate(297.19,&#10;                                33.02) rotate(180, 16.510476190476194, 16.510476190476194)"><svg xmlns="http://www.w3.org/2000/svg" id="Layer_1" data-name="Layer 1" viewBox="0 0 100 100" width="33.02095238095239" height="33.02095238095239"><path d="M100,100A50,50,0,0,0,0,100Z" fill="#F7B801"/></svg></g><g transform="translate(297.19,&#10;                                66.04) rotate(180, 16.510476190476194, 16.510476190476194)"><svg xmlns="http://www.w3.org/2000/svg" id="Layer_1" data-name="Layer 1" viewBox="0 0 100 100" width="33.02095238095239" height="33.02095238095239"><circle cx="50" cy="50" r="50" fill="#7678ED"/></svg></g><g transform="translate(363.23,&#10;                                66.04) rotate(180, 16.510476190476194, 16.510476190476194)"><svg xmlns="http://www.w3.org/2000/svg" id="Layer_1" data-name="Layer 1" viewBox="0 0 100 100" width="33.02095238095239" height="33.02095238095239"><path d="M50,100h0A50,50,0,0,1,0,50V0H100V50A50,50,0,0,1,50,100Z" fill="#F18701"/></svg></g><g transform="translate(396.25,&#10;                                0.00) rotate(90, 16.510476190476194, 16.510476190476194)"><svg xmlns="http://www.w3.org/2000/svg" id="Layer_1" data-name="Layer 1" viewBox="0 0 100 100" width="33.02095238095239" height="33.02095238095239"><path d="M50,100a50,50,0,1,1,50-50v50Z" fill="#3D348B"/></svg></g><g transform="translate(462.29,&#10;                                0.00) rotate(90, 16.510476190476194, 16.510476190476194)"><svg xmlns="http://www.w3.org/2000/svg" id="Layer_1" data-name="Layer 1" viewBox="0 0 100 100" width="33.02095238095239" height="33.02095238095239"><circle cx="50" cy="50" r="50" fill="#7678ED"/></svg></g><g transform="translate(396.25,&#10;                                33.02) rotate(270, 16.510476190476194, 16.510476190476194)"><svg xmlns="http://www.w3.org/2000/svg" id="Layer_1" data-name="Layer 1" viewBox="0 0 100 100" width="33.02095238095239" height="33.02095238095239"><path d="M50,100h0A50,50,0,0,1,0,50V0H100V50A50,50,0,0,1,50,100Z" fill="#F18701"/></svg></g><g transform="translate(396.25,&#10;                                66.04) rotate(0, 16.510476190476194, 16.510476190476194)"><svg xmlns="http://www.w3.org/2000/svg" id="Layer_1" data-name="Layer 1" viewBox="0 0 100 100" width="33.02095238095239" height="33.02095238095239"><circle cx="50" cy="50" r="50" fill="#7678ED"/></svg></g><g transform="translate(462.29,&#10;                                66.04) rotate(180, 16.510476190476194, 16.510476190476194)"><svg xmlns="http://www.w3.org/2000/svg" id="Layer_1" data-name="Layer 1" viewBox="0 0 100 100" width="33.02095238095239" height="33.02095238095239"><path d="M50,100a50,50,0,1,1,50-50v50Z" fill="#3D348B"/></svg></g><g transform="translate(495.31,&#10;                                0.00) rotate(0, 16.510476190476194, 16.510476190476194)"><svg xmlns="http://www.w3.org/2000/svg" id="Layer_1" data-name="Layer 1" viewBox="0 0 100 100" width="33.02095238095239" height="33.02095238095239"><path d="M100,100A50,50,0,0,0,0,100Z" fill="#F7B801"/></svg></g><g transform="translate(495.31,&#10;                                66.04) rotate(180, 16.510476190476194, 16.510476190476194)"><svg xmlns="http://www.w3.org/2000/svg" id="Layer_1" data-name="Layer 1" viewBox="0 0 100 100" width="33.02095238095239" height="33.02095238095239"><circle cx="50" cy="50" r="50" fill="#7678ED"/></svg></g><g transform="translate(594.38,&#10;                                33.02) rotate(0, 16.510476190476194, 16.510476190476194)"><svg xmlns="http://www.w3.org/2000/svg" id="Layer_1" data-name="Layer 1" viewBox="0 0 100 100" width="33.02095238095239" height="33.02095238095239"><circle cx="50" cy="50" r="50" fill="#7678ED"/></svg></g></g><g><g transform="translate(0.00,&#10;                                99.06) rotate(90, 16.510476190476194, 16.510476190476194)"><svg xmlns="http://www.w3.org/2000/svg" id="Layer_1" data-name="Layer 1" viewBox="0 0 100 100" width="33.02095238095239" height="33.02095238095239"><path d="M50,100a50,50,0,1,1,50-50v50Z" fill="#3D348B"/></svg></g><g transform="translate(66.04,&#10;                                99.06) rotate(270, 16.510476190476194, 16.510476190476194)"><svg xmlns="http://www.w3.org/2000/svg" id="Layer_1" data-name="Layer 1" viewBox="0 0 100 100" width="33.02095238095239" height="33.02095238095239"><path d="M50,100a50,50,0,1,1,50-50v50Z" fill="#3D348B"/></svg></g><g transform="translate(99.06,&#10;                                99.06) rotate(0, 16.510476190476194, 16.510476190476194)"><svg xmlns="http://www.w3.org/2000/svg" id="Layer_1" data-name="Layer 1" viewBox="0 0 100 100" width="33.02095238095239" height="33.02095238095239"><path d="M100,100A50,50,0,0,0,0,100Z" fill="#F7B801"/></svg></g><g transform="translate(132.08,&#10;                                99.06) rotate(0, 16.510476190476194, 16.510476190476194)"><svg xmlns="http://www.w3.org/2000/svg" id="Layer_1" data-name="Layer 1" viewBox="0 0 100 100" width="33.02095238095239" height="33.02095238095239"><path d="M50,100a50,50,0,1,1,50-50v50Z" fill="#3D348B"/></svg></g><g transform="translate(99.06,&#10;                                165.10) rotate(270, 16.510476190476194, 16.510476190476194)"><svg xmlns="http://www.w3.org/2000/svg" id="Layer_1" data-name="Layer 1" viewBox="0 0 100 100" width="33.02095238095239" height="33.02095238095239"><path d="M50,100a50,50,0,1,1,50-50v50Z" fill="#3D348B"/></svg></g><g transform="translate(165.10,&#10;                                165.10) rotate(180, 16.510476190476194, 16.510476190476194)"><svg xmlns="http://www.w3.org/2000/svg" id="Layer_1" data-name="Layer 1" viewBox="0 0 100 100" width="33.02095238095239" height="33.02095238095239"><path d="M100,100A50,50,0,0,0,0,100Z" fill="#F7B801"/></svg></g><g transform="translate(264.17,&#10;                                99.06) rotate(90, 16.510476190476194, 16.510476190476194)"><svg xmlns="http://www.w3.org/2000/svg" id="Layer_1" data-name="Layer 1" viewBox="0 0 100 100" width="33.02095238095239" height="33.02095238095239"><path d="M50,100a50,50,0,1,1,50-50v50Z" fill="#3D348B"/></svg></g><g transform="translate(198.13,&#10;                                165.10) rotate(270, 16.510476190476194, 16.510476190476194)"><svg xmlns="http://www.w3.org/2000/svg" id="Layer_1" data-name="Layer 1" viewBox="0 0 100 100" width="33.02095238095239" height="33.02095238095239"><circle cx="50" cy="50" r="50" fill="#7678ED"/></svg></g><g transform="translate(330.21,&#10;                                99.06) rotate(270, 16.510476190476194, 16.510476190476194)"><svg xmlns="http://www.w3.org/2000/svg" id="Layer_1" data-name="Layer 1" viewBox="0 0 100 100" width="33.02095238095239" height="33.02095238095239"><path d="M50,100a50,50,0,1,1,50-50v50Z" fill="#3D348B"/></svg></g><g transform="translate(363.23,&#10;                                99.06) rotate(0, 16.510476190476194, 16.510476190476194)"><svg xmlns="http://www.w3.org/2000/svg" id="Layer_1" data-name="Layer 1" viewBox="0 0 100 100" width="33.02095238095239" height="33.02095238095239"><circle cx="50" cy="50" r="50" fill="#7678ED"/></svg></g><g transform="translate(297.19,&#10;                                132.08) rotate(270, 16.510476190476194, 16.510476190476194)"><svg xmlns="http://www.w3.org/2000/svg" id="Layer_1" data-name="Layer 1" viewBox="0 0 100 100" width="33.02095238095239" height="33.02095238095239"><path d="M100,100A50,50,0,0,0,0,100Z" fill="#F7B801"/></svg></g><g transform="translate(297.19,&#10;                                165.10) rotate(90, 16.510476190476194, 16.510476190476194)"><svg xmlns="http://www.w3.org/2000/svg" id="Layer_1" data-name="Layer 1" viewBox="0 0 100 100" width="33.02095238095239" height="33.02095238095239"><circle cx="50" cy="50" r="50" fill="#7678ED"/></svg></g><g transform="translate(363.23,&#10;                                165.10) rotate(0, 16.510476190476194, 16.510476190476194)"><svg xmlns="http://www.w3.org/2000/svg" id="Layer_1" data-name="Layer 1" viewBox="0 0 100 100" width="33.02095238095239" height="33.02095238095239"><path d="M50,100h0A50,50,0,0,1,0,50V0H100V50A50,50,0,0,1,50,100Z" fill="#F18701"/></svg></g><g transform="translate(462.29,&#10;                                99.06) rotate(180, 16.510476190476194, 16.510476190476194)"><svg xmlns="http://www.w3.org/2000/svg" id="Layer_1" data-name="Layer 1" viewBox="0 0 100 100" width="33.02095238095239" height="33.02095238095239"><path d="M50,100a50,50,0,1,1,50-50v50Z" fill="#3D348B"/></svg></g><g transform="translate(462.29,&#10;                                165.10) rotate(270, 16.510476190476194, 16.510476190476194)"><svg xmlns="http://www.w3.org/2000/svg" id="Layer_1" data-name="Layer 1" viewBox="0 0 100 100" width="33.02095238095239" height="33.02095238095239"><path d="M50,100h0A50,50,0,0,1,0,50V0H100V50A50,50,0,0,1,50,100Z" fill="#F18701"/></svg></g><g transform="translate(528.34,&#10;                                99.06) rotate(270, 16.510476190476194, 16.510476190476194)"><svg xmlns="http://www.w3.org/2000/svg" id="Layer_1" data-name="Layer 1" viewBox="0 0 100 100" width="33.02095238095239" height="33.02095238095239"><path d="M50,100a50,50,0,1,1,50-50v50Z" fill="#3D348B"/></svg></g><g transform="translate(561.36,&#10;                                99.06) rotate(90, 16.510476190476194, 16.510476190476194)"><svg xmlns="http://www.w3.org/2000/svg" id="Layer_1" data-name="Layer 1" viewBox="0 0 100 100" width="33.02095238095239" height="33.02095238095239"><circle cx="50" cy="50" r="50" fill="#7678ED"/></svg></g><g transform="translate(495.31,&#10;                                132.08) rotate(90, 16.510476190476194, 16.510476190476194)"><svg xmlns="http://www.w3.org/2000/svg" id="Layer_1" data-name="Layer 1" viewBox="0 0 100 100" width="33.02095238095239" height="33.02095238095239"><path d="M50,100h0A50,50,0,0,1,0,50V0H100V50A50,50,0,0,1,50,100Z" fill="#F18701"/></svg></g><g transform="translate(495.31,&#10;                                165.10) rotate(270, 16.510476190476194, 16.510476190476194)"><svg xmlns="http://www.w3.org/2000/svg" id="Layer_1" data-name="Layer 1" viewBox="0 0 100 100" width="33.02095238095239" height="33.02095238095239"><circle cx="50" cy="50" r="50" fill="#7678ED"/></svg></g><g transform="translate(561.36,&#10;                                165.10) rotate(270, 16.510476190476194, 16.510476190476194)"><svg xmlns="http://www.w3.org/2000/svg" id="Layer_1" data-name="Layer 1" viewBox="0 0 100 100" width="33.02095238095239" height="33.02095238095239"><path d="M100,100A50,50,0,0,0,0,100Z" fill="#F7B801"/></svg></g><g transform="translate(594.38,&#10;                                99.06) rotate(270, 16.510476190476194, 16.510476190476194)"><svg xmlns="http://www.w3.org/2000/svg" id="Layer_1" data-name="Layer 1" viewBox="0 0 100 100" width="33.02095238095239" height="33.02095238095239"><path d="M100,100A50,50,0,0,0,0,100Z" fill="#F7B801"/></svg></g><g transform="translate(594.38,&#10;                                132.08) rotate(180, 16.510476190476194, 16.510476190476194)"><svg xmlns="http://www.w3.org/2000/svg" id="Layer_1" data-name="Layer 1" viewBox="0 0 100 100" width="33.02095238095239" height="33.02095238095239"><path d="M100,100A50,50,0,0,0,0,100Z" fill="#F7B801"/></svg></g></g><g><g transform="translate(66.04,&#10;                                198.13) rotate(270, 16.510476190476194, 16.510476190476194)"><svg xmlns="http://www.w3.org/2000/svg" id="Layer_1" data-name="Layer 1" viewBox="0 0 100 100" width="33.02095238095239" height="33.02095238095239"><circle cx="50" cy="50" r="50" fill="#7678ED"/></svg></g><g transform="translate(66.04,&#10;                                264.17) rotate(0, 16.510476190476194, 16.510476190476194)"><svg xmlns="http://www.w3.org/2000/svg" id="Layer_1" data-name="Layer 1" viewBox="0 0 100 100" width="33.02095238095239" height="33.02095238095239"><path d="M100,100A50,50,0,0,0,0,100Z" fill="#F7B801"/></svg></g><g transform="translate(165.10,&#10;                                198.13) rotate(0, 16.510476190476194, 16.510476190476194)"><svg xmlns="http://www.w3.org/2000/svg" id="Layer_1" data-name="Layer 1" viewBox="0 0 100 100" width="33.02095238095239" height="33.02095238095239"><circle cx="50" cy="50" r="50" fill="#7678ED"/></svg></g><g transform="translate(99.06,&#10;                                264.17) rotate(90, 16.510476190476194, 16.510476190476194)"><svg xmlns="http://www.w3.org/2000/svg" id="Layer_1" data-name="Layer 1" viewBox="0 0 100 100" width="33.02095238095239" height="33.02095238095239"><circle cx="50" cy="50" r="50" fill="#7678ED"/></svg></g><g transform="translate(198.13,&#10;                                198.13) rotate(90, 16.510476190476194, 16.510476190476194)"><svg xmlns="http://www.w3.org/2000/svg" id="Layer_1" data-name="Layer 1" viewBox="0 0 100 100" width="33.02095238095239" height="33.02095238095239"><path d="M50,100h0A50,50,0,0,1,0,50V0H100V50A50,50,0,0,1,50,100Z" fill="#F18701"/></svg></g><g transform="translate(231.15,&#10;                                198.13) rotate(90, 16.510476190476194, 16.510476190476194)"><svg xmlns="http://www.w3.org/2000/svg" id="Layer_1" data-name="Layer 1" viewBox="0 0 100 100" width="33.02095238095239" height="33.02095238095239"><path d="M50,100a50,50,0,1,1,50-50v50Z" fill="#3D348B"/></svg></g><g transform="translate(198.13,&#10;                                231.15) rotate(180, 16.510476190476194, 16.510476190476194)"><svg xmlns="http://www.w3.org/2000/svg" id="Layer_1" data-name="Layer 1" viewBox="0 0 100 100" width="33.02095238095239" height="33.02095238095239"><path d="M100,100A50,50,0,0,0,0,100Z" fill="#F7B801"/></svg></g><g transform="translate(198.13,&#10;                                264.17) rotate(270, 16.510476190476194, 16.510476190476194)"><svg xmlns="http://www.w3.org/2000/svg" id="Layer_1" data-name="Layer 1" viewBox="0 0 100 100" width="33.02095238095239" height="33.02095238095239"><circle cx="50" cy="50" r="50" fill="#7678ED"/></svg></g><g transform="translate(264.17,&#10;                                264.17) rotate(90, 16.510476190476194, 16.510476190476194)"><svg xmlns="http://www.w3.org/2000/svg" id="Layer_1" data-name="Layer 1" viewBox="0 0 100 100" width="33.02095238095239" height="33.02095238095239"><path d="M100,100A50,50,0,0,0,0,100Z" fill="#F7B801"/></svg></g><g transform="translate(363.23,&#10;                                198.13) rotate(180, 16.510476190476194, 16.510476190476194)"><svg xmlns="http://www.w3.org/2000/svg" id="Layer_1" data-name="Layer 1" viewBox="0 0 100 100" width="33.02095238095239" height="33.02095238095239"><path d="M50,100a50,50,0,1,1,50-50v50Z" fill="#3D348B"/></svg></g><g transform="translate(297.19,&#10;                                231.15) rotate(180, 16.510476190476194, 16.510476190476194)"><svg xmlns="http://www.w3.org/2000/svg" id="Layer_1" data-name="Layer 1" viewBox="0 0 100 100" width="33.02095238095239" height="33.02095238095239"><path d="M100,100A50,50,0,0,0,0,100Z" fill="#F7B801"/></svg></g><g transform="translate(594.38,&#10;                                198.13) rotate(0, 16.510476190476194, 16.510476190476194)"><svg xmlns="http://www.w3.org/2000/svg" id="Layer_1" data-name="Layer 1" viewBox="0 0 100 100" width="33.02095238095239" height="33.02095238095239"><path d="M50,100h0A50,50,0,0,1,0,50V0H100V50A50,50,0,0,1,50,100Z" fill="#F18701"/></svg></g><g transform="translate(594.38,&#10;                                264.17) rotate(90, 16.510476190476194, 16.510476190476194)"><svg xmlns="http://www.w3.org/2000/svg" id="Layer_1" data-name="Layer 1" viewBox="0 0 100 100" width="33.02095238095239" height="33.02095238095239"><path d="M50,100a50,50,0,1,1,50-50v50Z" fill="#3D348B"/></svg></g></g><g><g transform="translate(0.00,&#10;                                297.19) rotate(0, 16.510476190476194, 16.510476190476194)"><svg xmlns="http://www.w3.org/2000/svg" id="Layer_1" data-name="Layer 1" viewBox="0 0 100 100" width="33.02095238095239" height="33.02095238095239"><path d="M50,100h0A50,50,0,0,1,0,50V0H100V50A50,50,0,0,1,50,100Z" fill="#F18701"/></svg></g><g transform="translate(0.00,&#10;                                363.23) rotate(90, 16.510476190476194, 16.510476190476194)"><svg xmlns="http://www.w3.org/2000/svg" id="Layer_1" data-name="Layer 1" viewBox="0 0 100 100" width="33.02095238095239" height="33.02095238095239"><path d="M50,100a50,50,0,1,1,50-50v50Z" fill="#3D348B"/></svg></g><g transform="translate(99.06,&#10;                                297.19) rotate(270, 16.510476190476194, 16.510476190476194)"><svg xmlns="http://www.w3.org/2000/svg" id="Layer_1" data-name="Layer 1" viewBox="0 0 100 100" width="33.02095238095239" height="33.02095238095239"><path d="M100,100A50,50,0,0,0,0,100Z" fill="#F7B801"/></svg></g><g transform="translate(132.08,&#10;                                297.19) rotate(180, 16.510476190476194, 16.510476190476194)"><svg xmlns="http://www.w3.org/2000/svg" id="Layer_1" data-name="Layer 1" viewBox="0 0 100 100" width="33.02095238095239" height="33.02095238095239"><path d="M50,100a50,50,0,1,1,50-50v50Z" fill="#3D348B"/></svg></g><g transform="translate(165.10,&#10;                                297.19) rotate(0, 16.510476190476194, 16.510476190476194)"><svg xmlns="http://www.w3.org/2000/svg" id="Layer_1" data-name="Layer 1" viewBox="0 0 100 100" width="33.02095238095239" height="33.02095238095239"><path d="M50,100a50,50,0,1,1,50-50v50Z" fill="#3D348B"/></svg></g><g transform="translate(165.10,&#10;                                363.23) rotate(180, 16.510476190476194, 16.510476190476194)"><svg xmlns="http://www.w3.org/2000/svg" id="Layer_1" data-name="Layer 1" viewBox="0 0 100 100" width="33.02095238095239" height="33.02095238095239"><path d="M100,100A50,50,0,0,0,0,100Z" fill="#F7B801"/></svg></g><g transform="translate(198.13,&#10;                                330.21) rotate(0, 16.510476190476194, 16.510476190476194)"><svg xmlns="http://www.w3.org/2000/svg" id="Layer_1" data-name="Layer 1" viewBox="0 0 100 100" width="33.02095238095239" height="33.02095238095239"><path d="M100,100A50,50,0,0,0,0,100Z" fill="#F7B801"/></svg></g><g transform="translate(231.15,&#10;                                363.23) rotate(90, 16.510476190476194, 16.510476190476194)"><svg xmlns="http://www.w3.org/2000/svg" id="Layer_1" data-name="Layer 1" viewBox="0 0 100 100" width="33.02095238095239" height="33.02095238095239"><path d="M50,100h0A50,50,0,0,1,0,50V0H100V50A50,50,0,0,1,50,100Z" fill="#F18701"/></svg></g><g transform="translate(363.23,&#10;                                297.19) rotate(180, 16.510476190476194, 16.510476190476194)"><svg xmlns="http://www.w3.org/2000/svg" id="Layer_1" data-name="Layer 1" viewBox="0 0 100 100" width="33.02095238095239" height="33.02095238095239"><circle cx="50" cy="50" r="50" fill="#7678ED"/></svg></g><g transform="translate(396.25,&#10;                                297.19) rotate(90, 16.510476190476194, 16.510476190476194)"><svg xmlns="http://www.w3.org/2000/svg" id="Layer_1" data-name="Layer 1" viewBox="0 0 100 100" width="33.02095238095239" height="33.02095238095239"><path d="M50,100a50,50,0,1,1,50-50v50Z" fill="#3D348B"/></svg></g><g transform="translate(528.34,&#10;                                297.19) rotate(90, 16.510476190476194, 16.510476190476194)"><svg xmlns="http://www.w3.org/2000/svg" id="Layer_1" data-name="Layer 1" viewBox="0 0 100 100" width="33.02095238095239" height="33.02095238095239"><path d="M50,100a50,50,0,1,1,50-50v50Z" fill="#3D348B"/></svg></g><g transform="translate(660.42,&#10;                                297.19) rotate(0, 16.510476190476194, 16.510476190476194)"><svg xmlns="http://www.w3.org/2000/svg" id="Layer_1" data-name="Layer 1" viewBox="0 0 100 100" width="33.02095238095239" height="33.02095238095239"><circle cx="50" cy="50" r="50" fill="#7678ED"/></svg></g><g transform="translate(594.38,&#10;                                363.23) rotate(90, 16.510476190476194, 16.510476190476194)"><svg xmlns="http://www.w3.org/2000/svg" id="Layer_1" data-name="Layer 1" viewBox="0 0 100 100" width="33.02095238095239" height="33.02095238095239"><path d="M50,100a50,50,0,1,1,50-50v50Z" fill="#3D348B"/></svg></g></g><g><g transform="translate(66.04,&#10;                                396.25) rotate(270, 16.510476190476194, 16.510476190476194)"><svg xmlns="http://www.w3.org/2000/svg" id="Layer_1" data-name="Layer 1" viewBox="0 0 100 100" width="33.02095238095239" height="33.02095238095239"><circle cx="50" cy="50" r="50" fill="#7678ED"/></svg></g><g transform="translate(0.00,&#10;                                429.27) rotate(0, 16.510476190476194, 16.510476190476194)"><svg xmlns="http://www.w3.org/2000/svg" id="Layer_1" data-name="Layer 1" viewBox="0 0 100 100" width="33.02095238095239" height="33.02095238095239"><path d="M100,100A50,50,0,0,0,0,100Z" fill="#F7B801"/></svg></g><g transform="translate(99.06,&#10;                                396.25) rotate(270, 16.510476190476194, 16.510476190476194)"><svg xmlns="http://www.w3.org/2000/svg" id="Layer_1" data-name="Layer 1" viewBox="0 0 100 100" width="33.02095238095239" height="33.02095238095239"><path d="M100,100A50,50,0,0,0,0,100Z" fill="#F7B801"/></svg></g><g transform="translate(165.10,&#10;                                396.25) rotate(90, 16.510476190476194, 16.510476190476194)"><svg xmlns="http://www.w3.org/2000/svg" id="Layer_1" data-name="Layer 1" viewBox="0 0 100 100" width="33.02095238095239" height="33.02095238095239"><path d="M50,100a50,50,0,1,1,50-50v50Z" fill="#3D348B"/></svg></g><g transform="translate(99.06,&#10;                                462.29) rotate(0, 16.510476190476194, 16.510476190476194)"><svg xmlns="http://www.w3.org/2000/svg" id="Layer_1" data-name="Layer 1" viewBox="0 0 100 100" width="33.02095238095239" height="33.02095238095239"><path d="M50,100a50,50,0,1,1,50-50v50Z" fill="#3D348B"/></svg></g><g transform="translate(165.10,&#10;                                462.29) rotate(270, 16.510476190476194, 16.510476190476194)"><svg xmlns="http://www.w3.org/2000/svg" id="Layer_1" data-name="Layer 1" viewBox="0 0 100 100" width="33.02095238095239" height="33.02095238095239"><path d="M50,100a50,50,0,1,1,50-50v50Z" fill="#3D348B"/></svg></g><g transform="translate(198.13,&#10;                                396.25) rotate(180, 16.510476190476194, 16.510476190476194)"><svg xmlns="http://www.w3.org/2000/svg" id="Layer_1" data-name="Layer 1" viewBox="0 0 100 100" width="33.02095238095239" height="33.02095238095239"><path d="M100,100A50,50,0,0,0,0,100Z" fill="#F7B801"/></svg></g><g transform="translate(198.13,&#10;                                429.27) rotate(180, 16.510476190476194, 16.510476190476194)"><svg xmlns="http://www.w3.org/2000/svg" id="Layer_1" data-name="Layer 1" viewBox="0 0 100 100" width="33.02095238095239" height="33.02095238095239"><path d="M50,100h0A50,50,0,0,1,0,50V0H100V50A50,50,0,0,1,50,100Z" fill="#F18701"/></svg></g><g transform="translate(297.19,&#10;                                396.25) rotate(0, 16.510476190476194, 16.510476190476194)"><svg xmlns="http://www.w3.org/2000/svg" id="Layer_1" data-name="Layer 1" viewBox="0 0 100 100" width="33.02095238095239" height="33.02095238095239"><path d="M100,100A50,50,0,0,0,0,100Z" fill="#F7B801"/></svg></g><g transform="translate(297.19,&#10;                                429.27) rotate(270, 16.510476190476194, 16.510476190476194)"><svg xmlns="http://www.w3.org/2000/svg" id="Layer_1" data-name="Layer 1" viewBox="0 0 100 100" width="33.02095238095239" height="33.02095238095239"><path d="M100,100A50,50,0,0,0,0,100Z" fill="#F7B801"/></svg></g><g transform="translate(297.19,&#10;                                462.29) rotate(270, 16.510476190476194, 16.510476190476194)"><svg xmlns="http://www.w3.org/2000/svg" id="Layer_1" data-name="Layer 1" viewBox="0 0 100 100" width="33.02095238095239" height="33.02095238095239"><path d="M50,100a50,50,0,1,1,50-50v50Z" fill="#3D348B"/></svg></g><g transform="translate(396.25,&#10;                                396.25) rotate(0, 16.510476190476194, 16.510476190476194)"><svg xmlns="http://www.w3.org/2000/svg" id="Layer_1" data-name="Layer 1" viewBox="0 0 100 100" width="33.02095238095239" height="33.02095238095239"><path d="M50,100h0A50,50,0,0,1,0,50V0H100V50A50,50,0,0,1,50,100Z" fill="#F18701"/></svg></g><g transform="translate(396.25,&#10;                                429.27) rotate(270, 16.510476190476194, 16.510476190476194)"><svg xmlns="http://www.w3.org/2000/svg" id="Layer_1" data-name="Layer 1" viewBox="0 0 100 100" width="33.02095238095239" height="33.02095238095239"><path d="M100,100A50,50,0,0,0,0,100Z" fill="#F7B801"/></svg></g><g transform="translate(462.29,&#10;                                462.29) rotate(0, 16.510476190476194, 16.510476190476194)"><svg xmlns="http://www.w3.org/2000/svg" id="Layer_1" data-name="Layer 1" viewBox="0 0 100 100" width="33.02095238095239" height="33.02095238095239"><path d="M50,100a50,50,0,1,1,50-50v50Z" fill="#3D348B"/></svg></g><g transform="translate(495.31,&#10;                                396.25) rotate(90, 16.510476190476194, 16.510476190476194)"><svg xmlns="http://www.w3.org/2000/svg" id="Layer_1" data-name="Layer 1" viewBox="0 0 100 100" width="33.02095238095239" height="33.02095238095239"><path d="M100,100A50,50,0,0,0,0,100Z" fill="#F7B801"/></svg></g><g transform="translate(495.31,&#10;                                429.27) rotate(0, 16.510476190476194, 16.510476190476194)"><svg xmlns="http://www.w3.org/2000/svg" id="Layer_1" data-name="Layer 1" viewBox="0 0 100 100" width="33.02095238095239" height="33.02095238095239"><path d="M100,100A50,50,0,0,0,0,100Z" fill="#F7B801"/></svg></g><g transform="translate(660.42,&#10;                                396.25) rotate(0, 16.510476190476194, 16.510476190476194)"><svg xmlns="http://www.w3.org/2000/svg" id="Layer_1" data-name="Layer 1" viewBox="0 0 100 100" width="33.02095238095239" height="33.02095238095239"><circle cx="50" cy="50" r="50" fill="#7678ED"/></svg></g><g transform="translate(594.38,&#10;                                429.27) rotate(90, 16.510476190476194, 16.510476190476194)"><svg xmlns="http://www.w3.org/2000/svg" id="Layer_1" data-name="Layer 1" viewBox="0 0 100 100" width="33.02095238095239" height="33.02095238095239"><circle cx="50" cy="50" r="50" fill="#7678ED"/></svg></g><g transform="translate(627.40,&#10;                                462.29) rotate(90, 16.510476190476194, 16.510476190476194)"><svg xmlns="http://www.w3.org/2000/svg" id="Layer_1" data-name="Layer 1" viewBox="0 0 100 100" width="33.02095238095239" height="33.02095238095239"><path d="M50,100h0A50,50,0,0,1,0,50V0H100V50A50,50,0,0,1,50,100Z" fill="#F18701"/></svg></g></g><g><g transform="translate(0.00,&#10;                                495.31) rotate(180, 16.510476190476194, 16.510476190476194)"><svg xmlns="http://www.w3.org/2000/svg" id="Layer_1" data-name="Layer 1" viewBox="0 0 100 100" width="33.02095238095239" height="33.02095238095239"><path d="M50,100h0A50,50,0,0,1,0,50V0H100V50A50,50,0,0,1,50,100Z" fill="#F18701"/></svg></g><g transform="translate(33.02,&#10;                                495.31) rotate(90, 16.510476190476194, 16.510476190476194)"><svg xmlns="http://www.w3.org/2000/svg" id="Layer_1" data-name="Layer 1" viewBox="0 0 100 100" width="33.02095238095239" height="33.02095238095239"><path d="M50,100a50,50,0,1,1,50-50v50Z" fill="#3D348B"/></svg></g><g transform="translate(66.04,&#10;                                495.31) rotate(180, 16.510476190476194, 16.510476190476194)"><svg xmlns="http://www.w3.org/2000/svg" id="Layer_1" data-name="Layer 1" viewBox="0 0 100 100" width="33.02095238095239" height="33.02095238095239"><circle cx="50" cy="50" r="50" fill="#7678ED"/></svg></g><g transform="translate(99.06,&#10;                                528.34) rotate(0, 16.510476190476194, 16.510476190476194)"><svg xmlns="http://www.w3.org/2000/svg" id="Layer_1" data-name="Layer 1" viewBox="0 0 100 100" width="33.02095238095239" height="33.02095238095239"><path d="M100,100A50,50,0,0,0,0,100Z" fill="#F7B801"/></svg></g><g transform="translate(264.17,&#10;                                495.31) rotate(270, 16.510476190476194, 16.510476190476194)"><svg xmlns="http://www.w3.org/2000/svg" id="Layer_1" data-name="Layer 1" viewBox="0 0 100 100" width="33.02095238095239" height="33.02095238095239"><circle cx="50" cy="50" r="50" fill="#7678ED"/></svg></g><g transform="translate(198.13,&#10;                                561.36) rotate(180, 16.510476190476194, 16.510476190476194)"><svg xmlns="http://www.w3.org/2000/svg" id="Layer_1" data-name="Layer 1" viewBox="0 0 100 100" width="33.02095238095239" height="33.02095238095239"><path d="M50,100a50,50,0,1,1,50-50v50Z" fill="#3D348B"/></svg></g><g transform="translate(264.17,&#10;                                561.36) rotate(90, 16.510476190476194, 16.510476190476194)"><svg xmlns="http://www.w3.org/2000/svg" id="Layer_1" data-name="Layer 1" viewBox="0 0 100 100" width="33.02095238095239" height="33.02095238095239"><path d="M50,100h0A50,50,0,0,1,0,50V0H100V50A50,50,0,0,1,50,100Z" fill="#F18701"/></svg></g><g transform="translate(297.19,&#10;                                495.31) rotate(180, 16.510476190476194, 16.510476190476194)"><svg xmlns="http://www.w3.org/2000/svg" id="Layer_1" data-name="Layer 1" viewBox="0 0 100 100" width="33.02095238095239" height="33.02095238095239"><path d="M100,100A50,50,0,0,0,0,100Z" fill="#F7B801"/></svg></g><g transform="translate(297.19,&#10;                                528.34) rotate(180, 16.510476190476194, 16.510476190476194)"><svg xmlns="http://www.w3.org/2000/svg" id="Layer_1" data-name="Layer 1" viewBox="0 0 100 100" width="33.02095238095239" height="33.02095238095239"><circle cx="50" cy="50" r="50" fill="#7678ED"/></svg></g><g transform="translate(297.19,&#10;                                561.36) rotate(90, 16.510476190476194, 16.510476190476194)"><svg xmlns="http://www.w3.org/2000/svg" id="Layer_1" data-name="Layer 1" viewBox="0 0 100 100" width="33.02095238095239" height="33.02095238095239"><circle cx="50" cy="50" r="50" fill="#7678ED"/></svg></g><g transform="translate(396.25,&#10;                                495.31) rotate(180, 16.510476190476194, 16.510476190476194)"><svg xmlns="http://www.w3.org/2000/svg" id="Layer_1" data-name="Layer 1" viewBox="0 0 100 100" width="33.02095238095239" height="33.02095238095239"><path d="M50,100h0A50,50,0,0,1,0,50V0H100V50A50,50,0,0,1,50,100Z" fill="#F18701"/></svg></g><g transform="translate(462.29,&#10;                                495.31) rotate(180, 16.510476190476194, 16.510476190476194)"><svg xmlns="http://www.w3.org/2000/svg" id="Layer_1" data-name="Layer 1" viewBox="0 0 100 100" width="33.02095238095239" height="33.02095238095239"><circle cx="50" cy="50" r="50" fill="#7678ED"/></svg></g><g transform="translate(462.29,&#10;                                561.36) rotate(270, 16.510476190476194, 16.510476190476194)"><svg xmlns="http://www.w3.org/2000/svg" id="Layer_1" data-name="Layer 1" viewBox="0 0 100 100" width="33.02095238095239" height="33.02095238095239"><path d="M50,100h0A50,50,0,0,1,0,50V0H100V50A50,50,0,0,1,50,100Z" fill="#F18701"/></svg></g><g transform="translate(495.31,&#10;                                495.31) rotate(180, 16.510476190476194, 16.510476190476194)"><svg xmlns="http://www.w3.org/2000/svg" id="Layer_1" data-name="Layer 1" viewBox="0 0 100 100" width="33.02095238095239" height="33.02095238095239"><path d="M50,100h0A50,50,0,0,1,0,50V0H100V50A50,50,0,0,1,50,100Z" fill="#F18701"/></svg></g><g transform="translate(495.31,&#10;                                528.34) rotate(90, 16.510476190476194, 16.510476190476194)"><svg xmlns="http://www.w3.org/2000/svg" id="Layer_1" data-name="Layer 1" viewBox="0 0 100 100" width="33.02095238095239" height="33.02095238095239"><path d="M50,100h0A50,50,0,0,1,0,50V0H100V50A50,50,0,0,1,50,100Z" fill="#F18701"/></svg></g><g transform="translate(561.36,&#10;                                561.36) rotate(90, 16.510476190476194, 16.510476190476194)"><svg xmlns="http://www.w3.org/2000/svg" id="Layer_1" data-name="Layer 1" viewBox="0 0 100 100" width="33.02095238095239" height="33.02095238095239"><path d="M50,100h0A50,50,0,0,1,0,50V0H100V50A50,50,0,0,1,50,100Z" fill="#F18701"/></svg></g><g transform="translate(594.38,&#10;                                495.31) rotate(90, 16.510476190476194, 16.510476190476194)"><svg xmlns="http://www.w3.org/2000/svg" id="Layer_1" data-name="Layer 1" viewBox="0 0 100 100" width="33.02095238095239" height="33.02095238095239"><path d="M50,100h0A50,50,0,0,1,0,50V0H100V50A50,50,0,0,1,50,100Z" fill="#F18701"/></svg></g><g transform="translate(594.38,&#10;                                528.34) rotate(90, 16.510476190476194, 16.510476190476194)"><svg xmlns="http://www.w3.org/2000/svg" id="Layer_1" data-name="Layer 1" viewBox="0 0 100 100" width="33.02095238095239" height="33.02095238095239"><path d="M100,100A50,50,0,0,0,0,100Z" fill="#F7B801"/></svg></g></g><g><g transform="translate(0.00,&#10;                                594.38) rotate(90, 16.510476190476194, 16.510476190476194)"><svg xmlns="http://www.w3.org/2000/svg" id="Layer_1" data-name="Layer 1" viewBox="0 0 100 100" width="33.02095238095239" height="33.02095238095239"><path d="M50,100h0A50,50,0,0,1,0,50V0H100V50A50,50,0,0,1,50,100Z" fill="#F18701"/></svg></g><g transform="translate(33.02,&#10;                                660.42) rotate(0, 16.510476190476194, 16.510476190476194)"><svg xmlns="http://www.w3.org/2000/svg" id="Layer_1" data-name="Layer 1" viewBox="0 0 100 100" width="33.02095238095239" height="33.02095238095239"><path d="M50,100h0A50,50,0,0,1,0,50V0H100V50A50,50,0,0,1,50,100Z" fill="#F18701"/></svg></g><g transform="translate(66.04,&#10;                                660.42) rotate(270, 16.510476190476194, 16.510476190476194)"><svg xmlns="http://www.w3.org/2000/svg" id="Layer_1" data-name="Layer 1" viewBox="0 0 100 100" width="33.02095238095239" height="33.02095238095239"><path d="M50,100h0A50,50,0,0,1,0,50V0H100V50A50,50,0,0,1,50,100Z" fill="#F18701"/></svg></g><g transform="translate(99.06,&#10;                                594.38) rotate(0, 16.510476190476194, 16.510476190476194)"><svg xmlns="http://www.w3.org/2000/svg" id="Layer_1" data-name="Layer 1" viewBox="0 0 100 100" width="33.02095238095239" height="33.02095238095239"><path d="M50,100a50,50,0,1,1,50-50v50Z" fill="#3D348B"/></svg></g><g transform="translate(132.08,&#10;                                594.38) rotate(180, 16.510476190476194, 16.510476190476194)"><svg xmlns="http://www.w3.org/2000/svg" id="Layer_1" data-name="Layer 1" viewBox="0 0 100 100" width="33.02095238095239" height="33.02095238095239"><path d="M50,100a50,50,0,1,1,50-50v50Z" fill="#3D348B"/></svg></g><g transform="translate(165.10,&#10;                                594.38) rotate(90, 16.510476190476194, 16.510476190476194)"><svg xmlns="http://www.w3.org/2000/svg" id="Layer_1" data-name="Layer 1" viewBox="0 0 100 100" width="33.02095238095239" height="33.02095238095239"><circle cx="50" cy="50" r="50" fill="#7678ED"/></svg></g><g transform="translate(99.06,&#10;                                660.42) rotate(90, 16.510476190476194, 16.510476190476194)"><svg xmlns="http://www.w3.org/2000/svg" id="Layer_1" data-name="Layer 1" viewBox="0 0 100 100" width="33.02095238095239" height="33.02095238095239"><circle cx="50" cy="50" r="50" fill="#7678ED"/></svg></g><g transform="translate(165.10,&#10;                                660.42) rotate(180, 16.510476190476194, 16.510476190476194)"><svg xmlns="http://www.w3.org/2000/svg" id="Layer_1" data-name="Layer 1" viewBox="0 0 100 100" width="33.02095238095239" height="33.02095238095239"><path d="M100,100A50,50,0,0,0,0,100Z" fill="#F7B801"/></svg></g><g transform="translate(264.17,&#10;                                594.38) rotate(0, 16.510476190476194, 16.510476190476194)"><svg xmlns="http://www.w3.org/2000/svg" id="Layer_1" data-name="Layer 1" viewBox="0 0 100 100" width="33.02095238095239" height="33.02095238095239"><circle cx="50" cy="50" r="50" fill="#7678ED"/></svg></g><g transform="translate(198.13,&#10;                                627.40) rotate(0, 16.510476190476194, 16.510476190476194)"><svg xmlns="http://www.w3.org/2000/svg" id="Layer_1" data-name="Layer 1" viewBox="0 0 100 100" width="33.02095238095239" height="33.02095238095239"><path d="M100,100A50,50,0,0,0,0,100Z" fill="#F7B801"/></svg></g><g transform="translate(198.13,&#10;                                660.42) rotate(90, 16.510476190476194, 16.510476190476194)"><svg xmlns="http://www.w3.org/2000/svg" id="Layer_1" data-name="Layer 1" viewBox="0 0 100 100" width="33.02095238095239" height="33.02095238095239"><path d="M50,100a50,50,0,1,1,50-50v50Z" fill="#3D348B"/></svg></g><g transform="translate(297.19,&#10;                                594.38) rotate(180, 16.510476190476194, 16.510476190476194)"><svg xmlns="http://www.w3.org/2000/svg" id="Layer_1" data-name="Layer 1" viewBox="0 0 100 100" width="33.02095238095239" height="33.02095238095239"><path d="M50,100h0A50,50,0,0,1,0,50V0H100V50A50,50,0,0,1,50,100Z" fill="#F18701"/></svg></g><g transform="translate(330.21,&#10;                                594.38) rotate(0, 16.510476190476194, 16.510476190476194)"><svg xmlns="http://www.w3.org/2000/svg" id="Layer_1" data-name="Layer 1" viewBox="0 0 100 100" width="33.02095238095239" height="33.02095238095239"><path d="M50,100a50,50,0,1,1,50-50v50Z" fill="#3D348B"/></svg></g><g transform="translate(363.23,&#10;                                594.38) rotate(270, 16.510476190476194, 16.510476190476194)"><svg xmlns="http://www.w3.org/2000/svg" id="Layer_1" data-name="Layer 1" viewBox="0 0 100 100" width="33.02095238095239" height="33.02095238095239"><path d="M50,100a50,50,0,1,1,50-50v50Z" fill="#3D348B"/></svg></g><g transform="translate(297.19,&#10;                                660.42) rotate(90, 16.510476190476194, 16.510476190476194)"><svg xmlns="http://www.w3.org/2000/svg" id="Layer_1" data-name="Layer 1" viewBox="0 0 100 100" width="33.02095238095239" height="33.02095238095239"><circle cx="50" cy="50" r="50" fill="#7678ED"/></svg></g><g transform="translate(363.23,&#10;                                660.42) rotate(180, 16.510476190476194, 16.510476190476194)"><svg xmlns="http://www.w3.org/2000/svg" id="Layer_1" data-name="Layer 1" viewBox="0 0 100 100" width="33.02095238095239" height="33.02095238095239"><path d="M100,100A50,50,0,0,0,0,100Z" fill="#F7B801"/></svg></g><g transform="translate(495.31,&#10;                                627.40) rotate(0, 16.510476190476194, 16.510476190476194)"><svg xmlns="http://www.w3.org/2000/svg" id="Layer_1" data-name="Layer 1" viewBox="0 0 100 100" width="33.02095238095239" height="33.02095238095239"><path d="M100,100A50,50,0,0,0,0,100Z" fill="#F7B801"/></svg></g></g></svg>